<svg xmlns="http://www.w3.org/2000/svg" width="720" height="131" viewBox="0 0 720 131">
    <g fill="#FD9A4D" fill-rule="nonzero">
        <path d="M28.123 31.366v12.253h31.28v21.794h-31.28v12.052h38.385v22.297H0V9.069h66.508v22.297H28.123zM69.53 37.285h28.336l9.71 31.045h.297l9.709-31.045h28.533l-24.273 63.484H93.705zM144.1 67.97c0-20.245 13.262-33.708 33.353-33.708 20.684 0 33.155 12.579 33.155 33.708v5.7H169.04c.792 5.601 4.355 9.336 9.205 9.336 3.464 0 6.927-1.67 8.412-4.324h23.852c-2.079 13.857-15.143 23.094-33.056 23.094-19.893.099-33.353-13.463-33.353-33.806zm43.547-6.486c-.792-5.799-4.355-9.533-9.402-9.533-4.751 0-8.314 3.636-8.908 9.533h18.31zM220.685 36.735h25.757v6.728h.295c2.261-5.837 6.587-9.201 11.994-9.201 2.065 0 4.03.296 6.292.989v24.24c-2.261-.494-4.326-.89-6.095-.89-7.374 0-11.404 5.244-11.404 15.435v25.726h-26.84V36.735zM351.685 37.285L313.804 131h-29.699l13.334-30.941-28.385-62.774h28.89l13.031 32.23h.404l11.617-32.23zM356.723 9.07h38.842c23.564 0 37.743 13.257 37.743 34.95 0 21.795-14.179 35.253-37.743 35.253H385.18v20.489h-28.457V9.069zm36.745 47.605c6.69 0 10.983-5.022 10.983-12.554 0-7.332-4.293-12.253-10.983-12.253h-8.288v24.908h8.288v-.1zM439.354 0h27.208v99.762h-27.208zM473.615 67.921c0-20.117 11.446-33.66 28.465-33.66 6.07 0 13.635 1.767 17.815 7.753h.398v-5.3h25.876v62.61h-25.876v-5.3h-.398c-4.479 5.79-11.844 7.753-17.815 7.753-17.02 0-28.465-13.739-28.465-33.856zm45.483 0c0-8.636-3.682-14.131-10.052-14.131-5.772 0-9.455 5.79-9.455 14.131 0 8.44 3.683 14.131 9.455 14.131 6.27.098 10.052-5.397 10.052-14.13zM562.979 75.758V57.645h-10.764V35.53h10.764V15.115h27.208V35.53h16.444v22.215h-16.444v12.51c0 5.503 2.391 8.105 8.371 8.105 2.591 0 5.482-.5 8.073-.9v22.015c-3.19 1.4-9.368 2.301-15.149 2.301-17.142.1-28.503-10.307-28.503-26.018zM612.677 67.97c0-20.245 13.262-33.708 33.353-33.708 20.684 0 33.155 12.579 33.155 33.708v5.7h-41.568c.792 5.601 4.355 9.336 9.204 9.336 3.464 0 6.928-1.67 8.413-4.324h23.852c-2.079 13.857-15.143 23.094-33.056 23.094-19.893.099-33.353-13.463-33.353-33.806zm43.547-6.486c-.792-5.799-4.355-9.533-9.403-9.533-4.75 0-8.313 3.636-8.907 9.533h18.31z"/>
    </g>
</svg>
