<?xml version="1.0" standalone="no"?>
<!DOCTYPE svg PUBLIC "-//W3C//DTD SVG 1.1//EN" "http://www.w3.org/Graphics/SVG/1.1/DTD/svg11.dtd">
<!--Generator: Xara Designer (www.xara.com), SVG filter version: 4.0.0.1-->
<svg stroke-width="0.501" stroke-linejoin="bevel" fill-rule="evenodd" xmlns:xlink="http://www.w3.org/1999/xlink" xmlns="http://www.w3.org/2000/svg" version="1.1" overflow="visible" width="612pt" height="792pt" viewBox="0 0 612 792">
 <defs>
  <marker id="DefaultArrow2" markerUnits="strokeWidth" viewBox="0 0 1 1" markerWidth="1" markerHeight="1" overflow="visible" orient="auto">
   <!-- REF_ARROW_STRAIGHT (-2) -->
   <g transform="scale(0.0092592592)">
    <!-- 1/108 -->
    <path d="M -9 54 L -9 -54 L 117 0 z"/>
   </g>
  </marker>
  <marker id="DefaultArrow3" markerUnits="strokeWidth" viewBox="0 0 1 1" markerWidth="1" markerHeight="1" overflow="visible" orient="auto">
   <!-- REF_ARROW_ANGLED -->
   <g transform="scale(0.0092592592)">
    <path d="M -27 54 L -9 0 L -27 -54 L 135 0 z"/>
   </g>
  </marker>
  <marker id="DefaultArrow4" markerUnits="strokeWidth" viewBox="0 0 1 1" markerWidth="1" markerHeight="1" overflow="visible" orient="auto">
   <!-- REF_ARROW_ROUNDED -->
   <g transform="scale(0.0092592592)">
    <path d="M -9,0 L -9,-45 C -9,-51.708 2.808,-56.580 9,-54 L 117,-9 C 120.916,-7.369 126.000,-4.242 126,0 C 126,4.242 120.916,7.369 117,9 L 9,54 C 2.808,56.580 -9,51.708 -9,45 z"/>
   </g>
  </marker>
  <marker id="DefaultArrow5" markerUnits="strokeWidth" viewBox="0 0 1 1" markerWidth="1" markerHeight="1" overflow="visible" orient="auto">
   <!-- REF_ARROW_SPOT -->
   <g transform="scale(0.0092592592)">
    <path d="M -54, 0 C -54,29.807 -29.807,54 0,54 C 29.807,54 54,29.807 54,0 C 54,-29.807 29.807,-54 0,-54 C -29.807,-54 -54,-29.807 -54,0 z"/>
   </g>
  </marker>
  <marker id="DefaultArrow6" markerUnits="strokeWidth" viewBox="0 0 1 1" markerWidth="1" markerHeight="1" overflow="visible" orient="auto">
   <!-- REF_ARROW_DIAMOND -->
   <g transform="scale(0.0092592592)">
    <path d="M -63,0 L 0,63 L 63,0 L 0,-63 z"/>
   </g>
  </marker>
  <marker id="DefaultArrow7" markerUnits="strokeWidth" viewBox="0 0 1 1" markerWidth="1" markerHeight="1" overflow="visible" orient="auto">
   <!-- REF_ARROW_FEATHER -->
   <g transform="scale(0.0092592592)">
    <path d="M 18,-54 L 108,-54 L 63,0 L 108,54 L 18, 54 L -36,0 z"/>
   </g>
  </marker>
  <marker id="DefaultArrow8" markerUnits="strokeWidth" viewBox="0 0 1 1" markerWidth="1" markerHeight="1" overflow="visible" orient="auto">
   <!-- REF_ARROW_FEATHER2 -->
   <g transform="scale(0.0092592592)">
    <path d="M -36,0 L 18,-54 L 54,-54 L 18,-18 L 27,-18 L 63,-54 L 99,-54 L 63,-18 L 72,-18 L 108,-54 L 144,-54 L 90,0 L 144,54 L 108,54 L 72,18 L 63,18 L 99,54 L 63,54 L 27,18 L 18,18 L 54,54 L 18,54 z"/>
   </g>
  </marker>
  <marker id="DefaultArrow9" markerUnits="strokeWidth" viewBox="0 0 1 1" markerWidth="1" markerHeight="1" overflow="visible" orient="auto">
   <!-- REF_ARROW_HOLLOWDIAMOND -->
   <g transform="scale(0.0092592592)">
    <path d="M 0,45 L -45,0 L 0, -45 L 45, 0 z M 0, 63 L-63, 0 L 0, -63 L 63, 0 z"/>
   </g>
  </marker>
  <filter id="StainedFilter">
   <feBlend mode="multiply" in2="BackgroundImage" in="SourceGraphic" result="blend"/>
   <feComposite in="blend" in2="SourceAlpha" operator="in" result="comp"/>
  </filter>
  <filter id="BleachFilter">
   <feBlend mode="screen" in2="BackgroundImage" in="SourceGraphic" result="blend"/>
   <feComposite in="blend" in2="SourceAlpha" operator="in" result="comp"/>
  </filter>
  <filter id="InvertTransparencyBitmapFilter">
   <feComponentTransfer>
    <feFuncR type="gamma" amplitude="1.055" exponent=".416666666" offset="-0.055"/>
    <feFuncG type="gamma" amplitude="1.055" exponent=".416666666" offset="-0.055"/>
    <feFuncB type="gamma" amplitude="1.055" exponent=".416666666" offset="-0.055"/>
   </feComponentTransfer>
   <feComponentTransfer>
    <feFuncR type="linear" slope="-1" intercept="1"/>
    <feFuncG type="linear" slope="-1" intercept="1"/>
    <feFuncB type="linear" slope="-1" intercept="1"/>
    <feFuncA type="linear" slope="1" intercept="0"/>
   </feComponentTransfer>
   <feComponentTransfer>
    <feFuncR type="gamma" amplitude="1" exponent="2.4" offset="0"/>
    <feFuncG type="gamma" amplitude="1" exponent="2.4" offset="0"/>
    <feFuncB type="gamma" amplitude="1" exponent="2.4" offset="0"/>
   </feComponentTransfer>
  </filter>
  <linearGradient id="LinearGradient" gradientUnits="userSpaceOnUse" x1="0" y1="0" x2="32.1" y2="45.3" gradientTransform="translate(219.441 505.359)">
   <stop offset="0" stop-color="#639900"/>
   <stop offset="1" stop-color="#74b300"/>
  </linearGradient>
  <linearGradient id="LinearGradient_1" gradientUnits="userSpaceOnUse" x1="0" y1="0" x2="-3.282" y2="-67.031" gradientTransform="translate(264.249 608.775)">
   <stop offset="0" stop-color="#a6ff00"/>
   <stop offset="1" stop-color="#77b900"/>
  </linearGradient>
  <linearGradient id="LinearGradient_2" gradientUnits="userSpaceOnUse" x1="0" y1="0" x2="8.975" y2="0" gradientTransform="translate(274.502 545.915) rotate(-113.354) skewX(46.7355)">
   <stop offset="0" stop-color="#35392d"/>
   <stop offset="1" stop-color="#3e4432"/>
  </linearGradient>
  <linearGradient id="LinearGradient_3" gradientUnits="userSpaceOnUse" x1="0" y1="0" x2="0.247" y2="30.699" gradientTransform="translate(261.281 482.205)">
   <stop offset="0" stop-color="#696b66"/>
   <stop offset="1" stop-color="#acafa6"/>
  </linearGradient>
  <linearGradient id="LinearGradient_4" gradientUnits="userSpaceOnUse" x1="0" y1="0" x2="-1.811" y2="-60.168" gradientTransform="translate(308.277 590.025)">
   <stop offset="0" stop-color="#a6ff00"/>
   <stop offset="1" stop-color="#77b900"/>
  </linearGradient>
  <linearGradient id="LinearGradient_5" gradientUnits="userSpaceOnUse" x1="0" y1="0" x2="0" y2="13.594" gradientTransform="matrix(1 0 0 -1 126.04 4.907)">
   <stop offset="0" stop-color="#000000"/>
   <stop offset="1" stop-color="#639900"/>
  </linearGradient>
  <linearGradient id="LinearGradient_6" gradientUnits="userSpaceOnUse" x1="0" y1="0" x2="0" y2="13.594" gradientTransform="matrix(1 0 0 -1 126.04 4.907)">
   <stop offset="0" stop-color="#000000"/>
   <stop offset="1" stop-color="#639900"/>
  </linearGradient>
  <linearGradient id="LinearGradient_7" gradientUnits="userSpaceOnUse" x1="0" y1="0" x2="7.225" y2="0" gradientTransform="translate(201.688 505.567) rotate(-88.2235) skewX(0.246846)">
   <stop offset="0" stop-color="#82a9e3"/>
   <stop offset="1" stop-color="#2354a0"/>
  </linearGradient>
  <linearGradient id="LinearGradient_8" gradientUnits="userSpaceOnUse" x1="0" y1="0" x2="-1.811" y2="-60.168" gradientTransform="translate(308.277 590.025)">
   <stop offset="0" stop-color="#a6ff00"/>
   <stop offset="1" stop-color="#77b900"/>
  </linearGradient>
 </defs>
 <g id="Document" fill="none" stroke="black" font-family="Times New Roman" font-size="16" transform="scale(1 -1)">
  <g id="Spread" transform="translate(0 -792)">
   <g id="Layer 1">
    <path d="M 209.179,498.024 C 267.715,600.668 209.179,498.024 267.715,600.668 C 292.04,559.245 267.715,600.668 292.04,559.245 C 254.096,538.458 248.119,503.887 209.179,498.024 Z" stroke="none" stroke-linejoin="miter" stroke-linecap="round" stroke-width="0.5" marker-start="none" marker-end="none" stroke-miterlimit="79.8403193612775" fill="url(#LinearGradient)"/>
    <path d="M 216.62,506.925 C 267.684,596.468 216.62,506.925 267.684,596.468 C 288.904,560.332 267.684,596.468 288.904,560.332 C 255.803,542.198 250.59,512.04 216.62,506.925 Z" stroke="none" stroke-linejoin="miter" stroke-linecap="round" stroke-width="0.5" marker-start="none" marker-end="none" stroke-miterlimit="79.8403193612775" fill="url(#LinearGradient_1)"/>
    <path d="M 204.645,490.725 C 199.838,482.205 204.645,490.725 199.815,482.205 C 335.881,482.205 199.897,482.205 335.96,482.205 C 303.111,539.289 335.975,482.205 303.111,539.289 C 263.236,529.434 248.471,480.45 204.645,490.725 Z" stroke="none" stroke-width="0.5" stroke-linejoin="miter" stroke-linecap="round" marker-start="none" marker-end="none" stroke-miterlimit="79.8403193612775" fill="url(#LinearGradient_2)"/>
    <path d="M 207.357,490.085 C 203.192,483.198 207.661,490.612 203.785,483.904 C 331.72,485.029 203.785,483.904 331.72,485.029 C 301.337,538.515 331.753,485.344 301.37,538.83 C 267.794,531.424 247.271,483.079 207.357,490.085 Z" stroke="none" stroke-width="0.5" stroke-linejoin="miter" stroke-linecap="round" marker-start="none" marker-end="none" stroke-miterlimit="79.8403193612775" fill="url(#LinearGradient_3)"/>
    <path d="M 185.736,502.164 C 240.781,471.964 260.171,553.879 304.808,562.128 C 293.408,580.128 303.371,564.529 291.971,582.529 C 292.13,582.469 292.312,582.408 292.445,582.349 C 335.17,563.479 292.445,582.349 335.17,563.479 C 325.72,521.929 335.17,563.479 325.72,521.929 C 313.846,542.285 313.998,541.991 313.846,542.285 C 263.921,543.829 243.486,462.875 185.736,502.164 Z" stroke="none" stroke-width="0.25" stroke-linejoin="miter" stroke-linecap="round" marker-start="none" marker-end="none" stroke-miterlimit="79.8403193612775" fill="url(#LinearGradient_4)"/>
    <text xml:space="preserve" transform="translate(130.263 460.133) scale(1 -1)" font-weight="bold" font-family="Roboto" font-size="23.893" stroke-linejoin="round" stroke-linecap="round" stroke-width="0.25" stroke="none" stroke-miterlimit="79.8403193612775" fill="url(#LinearGradient_6)"><tspan x="0" y="0">Wealth Stream Builder</tspan></text>
    <path d="M 205.826,494.011 C 197.737,495.952 192.846,498.298 186.337,502.177 C 179.264,487.987 186.337,502.177 179.264,487.987 C 174.577,497.925 179.264,487.987 174.577,497.925 C 168.952,490.612 174.577,497.925 168.952,490.612 C 162.577,506.925 168.952,490.612 162.577,506.925 C 158.452,497.362 162.577,506.925 158.452,497.362 C 154.139,506.175 158.452,497.362 154.139,506.175 C 149.452,496.8 154.139,506.175 149.452,496.8" fill="none" stroke="#77b900" stroke-width="2" stroke-linejoin="round" stroke-linecap="round" stroke-miterlimit="79.8403193612775"/>
   </g>
  </g>
 </g>
</svg>
